<?xml version="1.0" encoding="UTF-8"?>
<svg width="63px" height="60px" viewBox="0 0 63 60" version="1.1" xmlns="http://www.w3.org/2000/svg" xmlns:xlink="http://www.w3.org/1999/xlink">
    <!-- Generator: sketchtool 51.2 (57519) - http://www.bohemiancoding.com/sketch -->
    <title>834CC52B-4EAD-41D5-A5B8-5200E2E74244</title>
    <desc>Created with sketchtool.</desc>
    <defs></defs>
    <g id="Page-1" stroke="none" stroke-width="1" fill="none" fill-rule="evenodd">
        <g id="Large-Devices-(-≥-1200px-)" transform="translate(-1176.000000, -842.000000)" fill="#000000">
            <g id="gouvernement" transform="translate(1125.000000, 842.000000)">
                <g id="museum" transform="translate(51.000000, 0.000000)">
                    <g id="Layer_1">
                        <path d="M62.1787045,18.8205668 C62.177247,18.7995547 62.1801619,18.778664 62.1774899,18.7576518 L61.0572874,9.79578947 C60.3833198,4.40392713 55.4055061,0.0173684211 49.9608097,0.0173684211 L13.335668,0.0173684211 C7.92352227,0.0173684211 2.71008097,4.33882591 1.7140081,9.65076923 L0.0189473684,18.6906073 C0.0149392713,18.7118623 0.0168825911,18.7332389 0.0142105263,18.7544939 C0.00825910931,18.8011336 0,18.8470445 0,18.8952632 L0,36.6627935 L0,58.8721457 C0,59.4853846 0.497246964,59.9826316 1.11048583,59.9826316 L8.88376518,59.9826316 L18.8780162,59.9826316 L25.5408097,59.9826316 L35.5350607,59.9826316 L42.1978543,59.9826316 L52.1921053,59.9826316 L61.0758704,59.9826316 C61.6891093,59.9826316 62.1863563,59.4853846 62.1863563,58.8721457 L62.1863563,36.6627935 L62.1863563,18.8952632 C62.1862348,18.8696356 62.1804049,18.8457085 62.1787045,18.8205668 L62.1787045,18.8205668 Z M3.89696356,10.060081 C4.70574899,5.74700405 8.93987854,2.23821862 13.335668,2.23821862 L49.9608097,2.23821862 C54.3242915,2.23821862 58.3136842,5.75210526 58.8538057,10.0711336 L59.8179352,17.7847773 L2.44834008,17.7847773 L3.89696356,10.060081 L3.89696356,10.060081 Z M17.7675304,57.7616599 L9.99425101,57.7616599 L9.99425101,49.4244534 C9.99425101,47.2861943 11.7377733,45.5464372 13.8808907,45.5464372 C16.0240081,45.5464372 17.7675304,47.2861943 17.7675304,49.4244534 L17.7675304,57.7616599 L17.7675304,57.7616599 Z M34.4245749,57.7616599 L26.6512955,57.7616599 L26.6512955,49.4244534 C26.6512955,47.2861943 28.3948178,45.5464372 30.5379352,45.5464372 C32.6810526,45.5464372 34.4245749,47.2861943 34.4245749,49.4244534 L34.4245749,57.7616599 L34.4245749,57.7616599 Z M51.081498,57.7616599 L43.3082186,57.7616599 L43.3082186,49.4244534 C43.3082186,47.2861943 45.0517409,45.5464372 47.1948583,45.5464372 C49.3379757,45.5464372 51.081498,47.2861943 51.081498,49.4244534 L51.081498,57.7616599 L51.081498,57.7616599 Z M59.9652632,57.7616599 L53.3024696,57.7616599 L53.3024696,49.4244534 C53.3024696,46.0615385 50.5626316,43.325587 47.1948583,43.325587 C43.827085,43.325587 41.087247,46.0616599 41.087247,49.4244534 L41.087247,57.7616599 L36.6454251,57.7616599 L36.6454251,49.4244534 C36.6454251,46.0615385 33.905587,43.325587 30.5378138,43.325587 C27.1700405,43.325587 24.4302024,46.0616599 24.4302024,49.4244534 L24.4302024,57.7616599 L19.9883806,57.7616599 L19.9883806,49.4244534 C19.9883806,46.0615385 17.2485425,43.325587 13.8807692,43.325587 C10.512996,43.325587 7.77327935,46.0616599 7.77327935,49.4245749 L7.77327935,57.7617814 L2.22097166,57.7617814 L2.22097166,37.7732794 L59.9653846,37.7732794 L59.9653846,57.7616599 L59.9652632,57.7616599 Z M59.9652632,35.5523077 L2.22097166,35.5523077 L2.22097166,20.005749 L59.9653846,20.005749 L59.9653846,35.5523077 L59.9652632,35.5523077 Z" id="Shape"></path>
                        <path d="M8.88376518,22.2267206 C6.4345749,22.2267206 4.44194332,24.2202024 4.44194332,26.6704858 L4.44194332,32.2209717 C4.44194332,32.8342105 4.93919028,33.3314575 5.55242915,33.3314575 L12.2152227,33.3314575 C12.8284615,33.3314575 13.3257085,32.8342105 13.3257085,32.2209717 L13.3257085,26.6704858 C13.325587,24.2202024 11.3329555,22.2267206 8.88376518,22.2267206 L8.88376518,22.2267206 Z M11.1047368,31.1104858 L6.66279352,31.1104858 L6.66279352,26.6704858 C6.66279352,25.4448583 7.65910931,24.4476923 8.88376518,24.4476923 C10.1084211,24.4476923 11.1047368,25.4448583 11.1047368,26.6704858 L11.1047368,31.1104858 L11.1047368,31.1104858 Z" id="Shape"></path>
                        <path d="M19.9883806,22.2267206 C17.5391903,22.2267206 15.5465587,24.2202024 15.5465587,26.6704858 L15.5465587,32.2209717 C15.5465587,32.8342105 16.0438057,33.3314575 16.6570445,33.3314575 L23.3198381,33.3314575 C23.9330769,33.3314575 24.4303239,32.8342105 24.4303239,32.2209717 L24.4303239,26.6704858 C24.4303239,24.2202024 22.4376923,22.2267206 19.9883806,22.2267206 L19.9883806,22.2267206 Z M22.2093522,31.1104858 L17.7675304,31.1104858 L17.7675304,26.6704858 C17.7675304,25.4448583 18.7638462,24.4476923 19.988502,24.4476923 C21.2131579,24.4476923 22.2094737,25.4448583 22.2094737,26.6704858 L22.2094737,31.1104858 L22.2093522,31.1104858 Z" id="Shape"></path>
                        <path d="M31.0931174,22.2267206 C28.6439271,22.2267206 26.6512955,24.2202024 26.6512955,26.6704858 L26.6512955,32.2209717 C26.6512955,32.8342105 27.1485425,33.3314575 27.7617814,33.3314575 L34.4245749,33.3314575 C35.0378138,33.3314575 35.5350607,32.8342105 35.5350607,32.2209717 L35.5350607,26.6704858 C35.5349393,24.2202024 33.5423077,22.2267206 31.0931174,22.2267206 L31.0931174,22.2267206 Z M33.3140891,31.1104858 L28.8722672,31.1104858 L28.8722672,26.6704858 C28.8722672,25.4448583 29.868583,24.4476923 31.0932389,24.4476923 C32.3178947,24.4476923 33.3142105,25.4448583 33.3142105,26.6704858 L33.3142105,31.1104858 L33.3140891,31.1104858 Z" id="Shape"></path>
                        <path d="M42.1978543,22.2267206 C39.748664,22.2267206 37.7560324,24.2202024 37.7560324,26.6704858 L37.7560324,32.2209717 C37.7560324,32.8342105 38.2532794,33.3314575 38.8665182,33.3314575 L45.5293117,33.3314575 C46.1425506,33.3314575 46.6397976,32.8342105 46.6397976,32.2209717 L46.6397976,26.6704858 C46.6396761,24.2202024 44.6470445,22.2267206 42.1978543,22.2267206 L42.1978543,22.2267206 Z M44.4187045,31.1104858 L39.9768826,31.1104858 L39.9768826,26.6704858 C39.9768826,25.4448583 40.9731984,24.4476923 42.1978543,24.4476923 C43.4225101,24.4476923 44.4188259,25.4448583 44.4188259,26.6704858 L44.4188259,31.1104858 L44.4187045,31.1104858 Z" id="Shape"></path>
                        <path d="M53.3024696,22.2267206 C50.8532794,22.2267206 48.8606478,24.2202024 48.8606478,26.6704858 L48.8606478,32.2209717 C48.8606478,32.8342105 49.3578947,33.3314575 49.9711336,33.3314575 L56.6339271,33.3314575 C57.247166,33.3314575 57.744413,32.8342105 57.744413,32.2209717 L57.744413,26.6704858 C57.744413,24.2202024 55.7516599,22.2267206 53.3024696,22.2267206 L53.3024696,22.2267206 Z M55.5234413,31.1104858 L51.0816194,31.1104858 L51.0816194,26.6704858 C51.0816194,25.4448583 52.0779352,24.4476923 53.3025911,24.4476923 C54.527247,24.4476923 55.5235628,25.4448583 55.5235628,26.6704858 L55.5235628,31.1104858 L55.5234413,31.1104858 Z" id="Shape"></path>
                    </g>
                </g>
            </g>
        </g>
    </g>
</svg>