<?xml version="1.0" encoding="UTF-8"?>
<svg width="26px" height="60px" viewBox="0 0 26 60" version="1.1" xmlns="http://www.w3.org/2000/svg" xmlns:xlink="http://www.w3.org/1999/xlink">
    <!-- Generator: sketchtool 51.2 (57519) - http://www.bohemiancoding.com/sketch -->
    <title>995C283F-64FC-428F-8444-21BC53EB9A09</title>
    <desc>Created with sketchtool.</desc>
    <defs></defs>
    <g id="Page-1" stroke="none" stroke-width="1" fill="none" fill-rule="evenodd">
        <g id="Large-Devices-(-≥-1200px-)" transform="translate(-417.000000, -842.000000)" fill="#FFFFFF">
            <g id="tourist-attractions" transform="translate(327.000000, 802.000000)">
                <g id="big-ben" transform="translate(90.000000, 40.000000)">
                    <g id="Capa_1">
                        <g id="Group">
                            <path d="M24.007,38.987 C24.559,38.987 25.007,38.54 25.007,37.987 L25.007,16.987 C25.007,16.434 24.559,15.987 24.007,15.987 L22.788,15.987 L20.978,8.745 C20.971,8.718 20.954,8.697 20.945,8.671 C20.924,8.608 20.899,8.547 20.865,8.489 C20.843,8.451 20.818,8.417 20.791,8.382 C20.771,8.357 20.759,8.327 20.736,8.304 L13.236,0.304 C12.858,-0.1 12.155,-0.1 11.777,0.304 L4.277,8.304 C4.255,8.328 4.242,8.357 4.222,8.382 C4.195,8.417 4.17,8.451 4.148,8.489 C4.114,8.547 4.09,8.608 4.068,8.671 C4.059,8.697 4.042,8.718 4.036,8.745 L2.225,15.987 L1.006,15.987 C0.454,15.987 0.006,16.434 0.006,16.987 L0.006,37.987 C0.006,38.54 0.454,38.987 1.006,38.987 L2.006,38.987 L2.006,47.987 L0.006,47.987 L0.006,49.987 L2.006,49.987 L2.006,51.987 L0.006,51.987 L0.006,53.987 L2.006,53.987 L2.006,57.987 C2.006,58.54 2.454,58.987 3.006,58.987 L6.006,58.987 L6.006,59.013 L8.006,59.013 L8.006,58.987 L10.006,58.987 L10.006,59.013 L12.006,59.013 L12.006,58.987 L13.006,58.987 L13.006,59.013 L15.006,59.013 L15.006,58.987 L17.006,58.987 L17.006,59.013 L19.006,59.013 L19.006,58.987 L22.006,58.987 C22.558,58.987 23.006,58.54 23.006,57.987 L23.006,53.987 L25.006,53.987 L25.006,51.987 L23.006,51.987 L23.006,49.987 L25.006,49.987 L25.006,47.987 L23.006,47.987 L23.006,38.987 L24.007,38.987 L24.007,38.987 Z M12.507,2.449 L17.699,7.987 L7.315,7.987 L12.507,2.449 L12.507,2.449 Z M5.787,9.987 L19.225,9.987 L20.725,15.987 L19.006,15.987 L19.006,12.987 L17.006,12.987 L17.006,15.987 L15.006,15.987 L15.006,12.987 L13.006,12.987 L13.006,15.987 L12.006,15.987 L12.006,12.987 L10.006,12.987 L10.006,15.987 L8.006,15.987 L8.006,12.987 L6.006,12.987 L6.006,15.987 L4.287,15.987 L5.787,9.987 L5.787,9.987 Z M2.007,17.987 L3.007,17.987 L22.007,17.987 L23.007,17.987 L23.007,36.987 L22.007,36.987 L3.007,36.987 L2.007,36.987 L2.007,17.987 L2.007,17.987 Z M10.007,38.987 L10.007,47.987 L8.007,47.987 L8.007,38.987 L10.007,38.987 L10.007,38.987 Z M13.007,38.987 L13.007,47.987 L12.007,47.987 L12.007,38.987 L13.007,38.987 L13.007,38.987 Z M10.007,49.987 L10.007,51.987 L8.007,51.987 L8.007,49.987 L10.007,49.987 L10.007,49.987 Z M12.007,49.987 L13.007,49.987 L13.007,51.987 L12.007,51.987 L12.007,49.987 L12.007,49.987 Z M15.007,49.987 L17.007,49.987 L17.007,51.987 L15.007,51.987 L15.007,49.987 L15.007,49.987 Z M15.007,47.987 L15.007,38.987 L17.007,38.987 L17.007,47.987 L15.007,47.987 L15.007,47.987 Z M4.007,38.987 L6.007,38.987 L6.007,47.987 L4.007,47.987 L4.007,38.987 L4.007,38.987 Z M4.007,49.987 L6.007,49.987 L6.007,51.987 L4.007,51.987 L4.007,49.987 L4.007,49.987 Z M4.007,56.987 L4.007,53.987 L6.007,53.987 L6.007,56.987 L4.007,56.987 L4.007,56.987 Z M8.007,56.987 L8.007,53.987 L10.007,53.987 L10.007,56.987 L8.007,56.987 L8.007,56.987 Z M12.007,56.987 L12.007,53.987 L13.007,53.987 L13.007,56.987 L12.007,56.987 L12.007,56.987 Z M15.007,56.987 L15.007,53.987 L17.007,53.987 L17.007,56.987 L15.007,56.987 L15.007,56.987 Z M21.007,56.987 L19.007,56.987 L19.007,53.987 L21.007,53.987 L21.007,56.987 L21.007,56.987 Z M21.007,51.987 L19.007,51.987 L19.007,49.987 L21.007,49.987 L21.007,51.987 L21.007,51.987 Z M21.007,47.987 L19.007,47.987 L19.007,38.987 L21.007,38.987 L21.007,47.987 L21.007,47.987 Z" id="Shape"></path>
                            <path d="M12.507,34.987 C16.643,34.987 20.007,31.623 20.007,27.487 C20.007,23.351 16.643,19.987 12.507,19.987 C8.371,19.987 5.007,23.351 5.007,27.487 C5.007,31.623 8.371,34.987 12.507,34.987 L12.507,34.987 Z M12.507,21.987 C15.54,21.987 18.007,24.455 18.007,27.487 C18.007,30.519 15.54,32.987 12.507,32.987 C9.474,32.987 7.007,30.519 7.007,27.487 C7.007,24.455 9.474,21.987 12.507,21.987 L12.507,21.987 Z" id="Shape"></path>
                            <polygon id="Shape" points="16.007 27.987 16.007 25.987 13.007 25.987 13.007 22.987 11.007 22.987 11.007 25.987 11.007 27.987 13.007 27.987"></polygon>
                        </g>
                    </g>
                </g>
            </g>
        </g>
    </g>
</svg>