<?xml version="1.0" encoding="UTF-8"?>
<svg width="62px" height="60px" viewBox="0 0 62 60" version="1.1" xmlns="http://www.w3.org/2000/svg" xmlns:xlink="http://www.w3.org/1999/xlink">
    <!-- Generator: sketchtool 51.2 (57519) - http://www.bohemiancoding.com/sketch -->
    <title>7333FAD2-D725-49DF-8A31-A76DECDD1BC7</title>
    <desc>Created with sketchtool.</desc>
    <defs></defs>
    <g id="Page-1" stroke="none" stroke-width="1" fill="none" fill-rule="evenodd">
        <g id="Large-Devices-(-≥-1200px-)" transform="translate(-591.000000, -842.000000)" fill="#000000">
            <g id="Tabs" transform="translate(150.000000, 802.000000)">
                <g id="restaurants" transform="translate(390.000000, 40.000000)">
                    <g id="hamburger" transform="translate(51.000000, 0.000000)">
                        <g id="Group">
                            <path d="M56.4130435,38.3628261 L41.6861739,38.3628261 L45.2812174,36.4063043 L56.4130435,36.4063043 C56.9534348,36.4063043 57.3913043,35.9684348 57.3913043,35.4280435 C57.3913043,34.8876522 56.9534348,34.4497826 56.4130435,34.4497826 L45.0323478,34.4497826 C44.868913,34.4497826 44.7082174,34.4906087 44.5647391,34.5687391 L37.3792174,38.4793043 C37.377,38.4804783 37.3747826,38.4816522 37.3725652,38.4829565 L30.6521739,42.1403478 L23.9316522,38.4829565 C23.9294348,38.4817826 23.9272174,38.4806087 23.925,38.4793043 L16.7394783,34.5687391 C16.596,34.4906087 16.4353043,34.4497826 16.2718696,34.4497826 L4.89130435,34.4497826 C4.35091304,34.4497826 3.91304348,34.8876522 3.91304348,35.4280435 C3.91304348,35.9684348 4.35091304,36.4063043 4.89130435,36.4063043 L16.0231304,36.4063043 L19.6181739,38.3628261 L4.89130435,38.3628261 C2.19417391,38.3628261 0,40.557 0,43.2541304 C0,45.9512609 2.19417391,48.1454348 4.89130435,48.1454348 L56.4130435,48.1454348 C59.1101739,48.1454348 61.3043478,45.9512609 61.3043478,43.2541304 C61.3043478,40.557 59.1101739,38.3628261 56.4130435,38.3628261 L56.4130435,38.3628261 Z M56.4130435,46.188913 L4.89130435,46.188913 C3.27313043,46.188913 1.95652174,44.8723043 1.95652174,43.2541304 C1.95652174,41.6359565 3.27313043,40.3193478 4.89130435,40.3193478 L23.213087,40.3193478 L30.1845652,44.1134348 C30.3302609,44.1927391 30.4913478,44.2323913 30.6521739,44.2323913 C30.813,44.2323913 30.974087,44.1927391 31.1197826,44.1134348 L38.0912609,40.3193478 L56.4130435,40.3193478 C58.0312174,40.3193478 59.3478261,41.6359565 59.3478261,43.2541304 C59.3478261,44.8723043 58.0312174,46.188913 56.4130435,46.188913 L56.4130435,46.188913 Z" id="Shape"></path>
                            <path d="M44.2826087,54.9932609 C44.2826087,54.453913 43.8436957,54.015 43.3043478,54.015 C42.765,54.015 42.326087,54.453913 42.326087,54.9932609 C42.326087,55.5326087 42.765,55.9715217 43.3043478,55.9715217 C43.8436957,55.9715217 44.2826087,55.5327391 44.2826087,54.9932609 L44.2826087,54.9932609 Z" id="Shape"></path>
                            <path d="M56.4130435,50.1019565 L16.6304348,50.1019565 C16.0900435,50.1019565 15.6521739,50.5398261 15.6521739,51.0802174 C15.6521739,51.6206087 16.0900435,52.0584783 16.6304348,52.0584783 L55.3651304,52.0584783 C54.8890435,55.3725652 52.0308261,57.9280435 48.5869565,57.9280435 L12.7173913,57.9280435 C9.27365217,57.9280435 6.41543478,55.3725652 5.93921739,52.0584783 L12.7173913,52.0584783 C13.2577826,52.0584783 13.6956522,51.6206087 13.6956522,51.0802174 C13.6956522,50.5398261 13.2577826,50.1019565 12.7173913,50.1019565 L4.89130435,50.1019565 C4.35091304,50.1019565 3.91304348,50.5398261 3.91304348,51.0802174 C3.91304348,55.935 7.8626087,59.8845652 12.7173913,59.8845652 L48.5869565,59.8845652 C53.4417391,59.8845652 57.3913043,55.935 57.3913043,51.0802174 C57.3913043,50.5399565 56.9534348,50.1019565 56.4130435,50.1019565 L56.4130435,50.1019565 Z" id="Shape"></path>
                            <path d="M14.0869565,21.8822609 C13.5476087,21.8822609 13.1086957,22.3211739 13.1086957,22.8605217 C13.1086957,23.3998696 13.5476087,23.8387826 14.0869565,23.8387826 C14.6263043,23.8387826 15.0652174,23.3998696 15.0652174,22.8605217 C15.0652174,22.3211739 14.6263043,21.8822609 14.0869565,21.8822609 L14.0869565,21.8822609 Z" id="Shape"></path>
                            <path d="M47.2173913,21.8822609 C46.6780435,21.8822609 46.2391304,22.3211739 46.2391304,22.8605217 C46.2391304,23.3998696 46.6780435,23.8387826 47.2173913,23.8387826 C47.7567391,23.8387826 48.1956522,23.3998696 48.1956522,22.8605217 C48.1956522,22.3211739 47.7567391,21.8822609 47.2173913,21.8822609 L47.2173913,21.8822609 Z" id="Shape"></path>
                            <path d="M18,24.6213913 C17.4606522,24.6213913 17.0217391,25.0603043 17.0217391,25.5996522 C17.0217391,26.139 17.4606522,26.577913 18,26.577913 C18.5393478,26.577913 18.9782609,26.139 18.9782609,25.5996522 C18.9782609,25.0603043 18.5393478,24.6213913 18,24.6213913 L18,24.6213913 Z" id="Shape"></path>
                            <path d="M4.89130435,32.4932609 L56.4130435,32.4932609 C56.9534348,32.4932609 57.3913043,32.0553913 57.3913043,31.515 L57.3913043,28.434913 C57.3913043,20.7033913 51.101087,14.4131739 43.3695652,14.4131739 L31.6304348,14.4131739 L31.6304348,10.1903478 L40.2373043,6.21717391 C40.5836087,6.05713043 40.8054783,5.71043478 40.8054783,5.32891304 C40.8054783,4.9473913 40.5836087,4.60056522 40.2373043,4.44065217 L31.0622609,0.205434783 C30.7593913,0.0656086957 30.405913,0.0897391304 30.1249565,0.269608696 C29.844,0.449347826 29.673913,0.760043478 29.673913,1.09356522 L29.673913,9.5433913 C29.6736522,9.55773913 29.6736522,9.57208696 29.673913,9.58630435 L29.673913,14.4130435 L17.9347826,14.4130435 C10.2032609,14.4130435 3.91304348,20.7032609 3.91304348,28.4347826 L3.91304348,31.5148696 C3.91304348,32.0553913 4.35091304,32.4932609 4.89130435,32.4932609 L4.89130435,32.4932609 Z M31.6304348,2.62278261 L37.4932174,5.32904348 L31.6304348,8.03543478 L31.6304348,2.62278261 L31.6304348,2.62278261 Z M5.86956522,28.434913 C5.86956522,21.782087 11.2819565,16.3696957 17.9347826,16.3696957 L43.3695652,16.3696957 C50.0223913,16.3696957 55.4347826,21.782087 55.4347826,28.434913 L55.4347826,30.5367391 L5.86956522,30.5367391 L5.86956522,28.434913 L5.86956522,28.434913 Z" id="Shape"></path>
                        </g>
                    </g>
                </g>
            </g>
        </g>
    </g>
</svg>