<?xml version="1.0" encoding="UTF-8"?>
<svg width="38px" height="37px" viewBox="0 0 38 37" version="1.1" xmlns="http://www.w3.org/2000/svg" xmlns:xlink="http://www.w3.org/1999/xlink">
    <!-- Generator: sketchtool 51.2 (57519) - http://www.bohemiancoding.com/sketch -->
    <title>5886814B-37FE-4FB3-98B1-1486F842C650</title>
    <desc>Created with sketchtool.</desc>
    <defs></defs>
    <g id="Page-1" stroke="none" stroke-width="1" fill="none" fill-rule="evenodd">
        <g id="Large-Devices-(-≥-1200px-)" transform="translate(-150.000000, -39.000000)" fill="#FFFFFF">
            <g id="Weather-widget" transform="translate(150.000000, 33.000000)">
                <g id="rain" transform="translate(0.000000, 6.000000)">
                    <g id="Group">
                        <path d="M31.7159032,12.5380252 C30.8860323,7.57007563 26.6735484,3.87007563 21.6839032,3.75752101 C20.3704516,1.4417563 17.967871,0.0158571429 15.3225806,0.0158571429 C12.1863548,0.0158571429 9.40990323,2.04432773 8.38696774,5.01241176 C6.79832258,4.8482437 5.30590323,5.59321849 4.43190323,6.88293277 C1.92145161,7.12234454 0,9.23414286 0,11.8309832 C0,13.3936891 0.722,14.8326471 1.9183871,15.7654202 C0.733032258,16.9985462 0,18.6818908 0,20.5368655 C0,24.3083782 3.02467742,27.3772017 6.74193548,27.3772017 L6.74193548,26.1335042 C3.70070968,26.1335042 1.22580645,23.6231008 1.22580645,20.5368655 C1.22580645,17.4506303 3.70070968,14.9402269 6.71803226,14.939605 L7.14216129,14.9427143 L7.31929032,14.6324118 C8.08603226,13.2879748 9.50858065,12.4528319 11.0322581,12.4528319 C11.2890645,12.4528319 11.5575161,12.4795714 11.8302581,12.5311849 L12.3990323,12.6400084 L12.5387742,12.0697731 C13.5574194,7.90214286 17.2225806,4.99064706 21.4516129,4.99064706 C26.087,4.99064706 30.007129,8.51031092 30.5691613,13.1772857 L30.6120645,13.5311176 C30.6329032,13.7910504 30.6451613,14.0528487 30.6451613,14.3183782 C30.6451613,19.4616891 26.5209355,23.6461092 21.4516129,23.6461092 L21.4516129,24.8898067 C27.1969677,24.8898067 31.8709677,20.1475882 31.8709677,14.3183782 C31.8709677,14.1529664 31.8574839,13.9919076 31.850129,13.8289832 C34.662129,14.4029496 36.7741935,16.9432017 36.7741935,19.9150168 C36.7741935,23.3438908 34.0247097,26.1335042 30.6451613,26.1335042 L30.6451613,27.3772017 C34.7007419,27.3772017 38,24.0297899 38,19.9150168 C38,16.2175042 35.2774839,13.069084 31.7159032,12.5380252 L31.7159032,12.5380252 Z M11.4956129,11.2302773 C9.44851613,11.0493193 7.54974194,12.0281092 6.44651613,13.7033697 C5.12325806,13.7612017 3.89929032,14.2101765 2.87941935,14.9358739 C1.85341935,14.2481092 1.22580645,13.0933361 1.22580645,11.8309832 C1.22580645,9.79878151 2.79606452,8.16269748 4.79964516,8.10610924 L5.14225806,8.09615966 L5.31325806,7.79518487 C5.86119355,6.83256303 6.878,6.23434454 7.96774194,6.23434454 C8.19880645,6.23434454 8.42987097,6.26294958 8.67441935,6.32140336 L9.2536129,6.45945378 L9.40683871,5.87615966 C10.120871,3.15805882 12.552871,1.25955462 15.3225806,1.25955462 C17.3053226,1.25955462 19.1213548,2.22466387 20.2631935,3.82343697 C16.1653226,4.29728571 12.7091613,7.18328571 11.4956129,11.2302773 L11.4956129,11.2302773 Z" id="Shape"></path>
                        <rect id="Rectangle-path" transform="translate(10.417228, 27.997610) rotate(26.565051) translate(-10.417228, -27.997610) " x="9.8043435" y="26.6072378" width="1.22576919" height="2.78074529"></rect>
                        <rect id="Rectangle-path" transform="translate(8.581152, 31.730858) rotate(206.565051) translate(-8.581152, -31.730858) " x="7.96826771" y="30.3404854" width="1.22576919" height="2.78074529"></rect>
                        <rect id="Rectangle-path" transform="translate(6.739299, 35.463582) rotate(206.565051) translate(-6.739299, -35.463582) " x="6.12641397" y="34.0732093" width="1.22576919" height="2.78074529"></rect>
                        <rect id="Rectangle-path" transform="translate(14.707778, 27.997020) rotate(26.565051) translate(-14.707778, -27.997020) " x="14.0949312" y="26.6066474" width="1.22569258" height="2.78074529"></rect>
                        <rect id="Rectangle-path" transform="translate(12.871839, 31.731029) rotate(206.565051) translate(-12.871839, -31.731029) " x="12.2589932" y="30.3406559" width="1.22569258" height="2.78074529"></rect>
                        <rect id="Rectangle-path" transform="translate(11.029888, 35.461844) rotate(206.565051) translate(-11.029888, -35.461844) " x="10.417003" y="34.0714709" width="1.22576919" height="2.78074529"></rect>
                        <rect id="Rectangle-path" transform="translate(18.998792, 27.998368) rotate(26.565051) translate(-18.998792, -27.998368) " x="18.3859078" y="26.6079954" width="1.22576919" height="2.78074529"></rect>
                        <rect id="Rectangle-path" transform="translate(17.160089, 31.733744) rotate(206.565051) translate(-17.160089, -31.733744) " x="16.5472049" y="30.343371" width="1.22576919" height="2.78074529"></rect>
                        <rect id="Rectangle-path" transform="translate(15.320463, 35.462674) rotate(206.565051) translate(-15.320463, -35.462674) " x="14.7076163" y="34.0723014" width="1.22569258" height="2.78074529"></rect>
                        <rect id="Rectangle-path" transform="translate(23.289241, 27.998423) rotate(26.565051) translate(-23.289241, -27.998423) " x="22.6763944" y="26.6080504" width="1.22569258" height="2.78074529"></rect>
                        <rect id="Rectangle-path" transform="translate(21.450798, 31.733279) rotate(206.565051) translate(-21.450798, -31.733279) " x="20.8379131" y="30.3429066" width="1.22576919" height="2.78074529"></rect>
                        <rect id="Rectangle-path" transform="translate(19.611822, 35.462202) rotate(206.565051) translate(-19.611822, -35.462202) " x="18.9989373" y="34.0718291" width="1.22576919" height="2.78074529"></rect>
                        <rect id="Rectangle-path" transform="translate(27.579780, 27.997719) rotate(206.565051) translate(-27.579780, -27.997719) " x="26.9668952" y="26.6073459" width="1.22576919" height="2.78074529"></rect>
                        <rect id="Rectangle-path" transform="translate(25.740901, 31.731614) rotate(206.565051) translate(-25.740901, -31.731614) " x="25.1280548" y="30.3412418" width="1.22569258" height="2.78074529"></rect>
                        <rect id="Rectangle-path" transform="translate(23.901879, 35.461768) rotate(206.565051) translate(-23.901879, -35.461768) " x="23.2890328" y="34.0713959" width="1.22569258" height="2.78074529"></rect>
                    </g>
                </g>
            </g>
        </g>
    </g>
</svg>