<?xml version="1.0" encoding="UTF-8"?>
<svg width="23px" height="23px" viewBox="0 0 23 23" version="1.1" xmlns="http://www.w3.org/2000/svg" xmlns:xlink="http://www.w3.org/1999/xlink">
    <!-- Generator: sketchtool 51.2 (57519) - http://www.bohemiancoding.com/sketch -->
    <title>F9DF1B94-6D05-4144-80DE-65452178C838</title>
    <desc>Created with sketchtool.</desc>
    <defs></defs>
    <g id="Page-1" stroke="none" stroke-width="1" fill="none" fill-rule="evenodd">
        <g id="Large-Devices-(-≥-1200px-)" transform="translate(-432.000000, -619.000000)" fill="#9F9F9F">
            <g id="Search" transform="translate(412.000000, 606.000000)">
                <g id="search_icon" transform="translate(20.000000, 13.000000)">
                    <path d="M22.8411296,21.0343519 L16.0978704,14.2910926 C17.2172037,12.7973704 17.8888889,10.9501296 17.8888889,8.94444444 C17.8888889,4.01222222 13.8766667,0 8.94444444,0 C4.01222222,0 0,4.01222222 0,8.94444444 C0,13.8766667 4.01222222,17.8888889 8.94444444,17.8888889 C10.9501296,17.8888889 12.7973704,17.2172037 14.2910926,16.0978704 L21.0343519,22.8411296 L22.8411296,21.0343519 L22.8411296,21.0343519 Z M0.851851852,8.94444444 C0.851851852,4.48201852 4.48201852,0.851851852 8.94444444,0.851851852 C13.4068704,0.851851852 17.037037,4.48201852 17.037037,8.94444444 C17.037037,13.4068704 13.4068704,17.037037 8.94444444,17.037037 C4.48201852,17.037037 0.851851852,13.4068704 0.851851852,8.94444444 L0.851851852,8.94444444 Z M15.1489074,15.3729444 C15.2247222,15.2996852 15.2992593,15.2251481 15.3725185,15.1493333 C15.4347037,15.0850185 15.502,15.0258148 15.5620556,14.9597963 L21.6366111,21.0343519 L21.0339259,21.637037 L14.9597963,15.5620556 C15.0258148,15.502 15.0845926,15.4347037 15.1489074,15.3729444 L15.1489074,15.3729444 Z" id="Shape"></path>
                </g>
            </g>
        </g>
    </g>
</svg>