<?xml version="1.0" encoding="UTF-8"?>
<svg width="33px" height="27px" viewBox="0 0 33 27" version="1.1" xmlns="http://www.w3.org/2000/svg" xmlns:xlink="http://www.w3.org/1999/xlink">
    <!-- Generator: sketchtool 51.2 (57519) - http://www.bohemiancoding.com/sketch -->
    <title>51AF8E57-446E-477D-B10F-5EF9753E3D16</title>
    <desc>Created with sketchtool.</desc>
    <defs></defs>
    <g id="Page-1" stroke="none" stroke-width="1" fill="none" fill-rule="evenodd">
        <g id="Large-Devices-(-≥-1200px-)" transform="translate(-1340.000000, -1525.000000)" fill="#000000">
            <g id="news" transform="translate(67.000000, 1117.000000)">
                <g id="Blog-post-2" transform="translate(668.000000, 222.000000)">
                    <g id="next" transform="translate(605.000000, 186.000000)">
                        <g id="Capa_1">
                            <g id="Group">
                                <path d="M32.135,13.817 L0.5,13.817 C0.224,13.817 0,13.593 0,13.317 C0,13.041 0.224,12.817 0.5,12.817 L32.135,12.817 C32.411,12.817 32.635,13.041 32.635,13.317 C32.635,13.593 32.411,13.817 32.135,13.817 L32.135,13.817 Z" id="Shape"></path>
                                <path d="M19.598,26.353 C19.47,26.353 19.342,26.304 19.244,26.207 C19.049,26.012 19.049,25.695 19.244,25.5 L31.428,13.316 L19.244,1.136 C19.049,0.941 19.049,0.624 19.244,0.429 C19.439,0.234 19.756,0.234 19.951,0.429 L32.488,12.962 C32.582,13.056 32.634,13.183 32.634,13.316 C32.634,13.449 32.581,13.576 32.488,13.67 L19.951,26.206 C19.854,26.304 19.726,26.353 19.598,26.353 L19.598,26.353 Z" id="Shape"></path>
                            </g>
                        </g>
                    </g>
                </g>
            </g>
        </g>
    </g>
</svg>