<?xml version="1.0" encoding="UTF-8"?>
<svg width="60px" height="60px" viewBox="0 0 60 60" version="1.1" xmlns="http://www.w3.org/2000/svg" xmlns:xlink="http://www.w3.org/1999/xlink">
    <!-- Generator: sketchtool 51.2 (57519) - http://www.bohemiancoding.com/sketch -->
    <title>11454A5C-0E3A-4EA6-A5A0-D91F5EFE2A4F</title>
    <desc>Created with sketchtool.</desc>
    <defs></defs>
    <g id="Page-1" stroke="none" stroke-width="1" fill="none" fill-rule="evenodd">
        <g id="Large-Devices-(-≥-1200px-)" transform="translate(-786.000000, -842.000000)" fill="#000000">
            <g id="Tabs" transform="translate(150.000000, 802.000000)">
                <g id="events" transform="translate(585.000000, 40.000000)">
                    <g id="ticket" transform="translate(51.000000, 0.000000)">
                        <g id="Capa_1">
                            <g id="Group">
                                <path d="M52.9975385,15.6923077 L52.3449231,16.3449231 C51.1227692,17.5670769 50.2338462,17.9206154 48.3821538,17.9206154 C44.6381538,17.9206154 41.9206154,15.2030769 41.9206154,11.4590769 C41.9206154,9.60738462 42.2741538,8.71846154 43.4963077,7.49630769 L44.1489231,6.84369231 L37.3052308,0 L0,37.3052308 L6.84369231,44.1489231 L7.49630769,43.4963077 C8.71846154,42.2741538 9.60738462,41.9206154 11.4590769,41.9206154 C15.2030769,41.9206154 17.9206154,44.6381538 17.9206154,48.3821538 C17.9206154,50.2338462 17.5670769,51.1227692 16.3449231,52.3449231 L15.6923077,52.9975385 L22.536,59.8412308 L59.8412308,22.536 L52.9975385,15.6923077 L52.9975385,15.6923077 Z M18.2769231,52.9707692 C19.3772308,51.6590769 19.7667692,50.3953846 19.7667692,48.3821538 C19.7667692,43.6458462 16.1953846,40.0744615 11.4590769,40.0744615 C9.44584615,40.0744615 8.18215385,40.464 6.86953846,41.5643077 L2.61046154,37.3052308 L24.3821538,15.5335385 L27.4218462,18.5732308 L28.7270769,17.268 L25.6873846,14.2283077 L37.3052308,2.61046154 L41.5643077,6.87046154 C40.464,8.18215385 40.0744615,9.44584615 40.0744615,11.4590769 C40.0744615,16.1953846 43.6458462,19.7667692 48.3821538,19.7667692 C50.3953846,19.7667692 51.6590769,19.3772308 52.9716923,18.2769231 L57.2307692,22.536 L45.6129231,34.1538462 L42.5732308,31.1141538 L41.268,32.4193846 L44.3076923,35.4590769 L22.536,57.2307692 L18.2769231,52.9707692 L18.2769231,52.9707692 Z" id="Shape"></path>
                                <polygon id="Shape" points="32.9603077 24.1126154 29.268 20.4203077 30.5732308 19.1150769 34.2655385 22.8073846"></polygon>
                                <polygon id="Shape" points="39.4218462 30.5741538 35.7295385 26.8818462 37.0347692 25.5766154 40.7270769 29.2689231"></polygon>
                            </g>
                        </g>
                    </g>
                </g>
            </g>
        </g>
    </g>
</svg>