<?xml version="1.0" encoding="UTF-8"?>
<svg width="60px" height="60px" viewBox="0 0 60 60" version="1.1" xmlns="http://www.w3.org/2000/svg" xmlns:xlink="http://www.w3.org/1999/xlink">
    <!-- Generator: sketchtool 51.2 (57519) - http://www.bohemiancoding.com/sketch -->
    <title>2FF84ABA-1DA3-4D77-A148-6CE3D30E8A33</title>
    <desc>Created with sketchtool.</desc>
    <defs></defs>
    <g id="Page-1" stroke="none" stroke-width="1" fill="none" fill-rule="evenodd">
        <g id="Large-Devices-(-≥-1200px-)" transform="translate(-205.000000, -842.000000)" fill="#000000">
            <g id="Tabs" transform="translate(150.000000, 802.000000)">
                <g id="accomodation" transform="translate(0.000000, 40.000000)">
                    <g id="hotel" transform="translate(55.000000, 0.000000)">
                        <g id="Layer_1">
                            <path d="M16.9975781,27.0004687 L9.99855469,27.0004687 C9.44636719,27.0004687 8.99871094,27.448125 8.99871094,28.0003125 L8.99871094,37.9988672 C8.99871094,38.5510547 9.44636719,38.9987109 9.99855469,38.9987109 L16.9975781,38.9987109 C17.5497656,38.9987109 17.9974219,38.5510547 17.9974219,37.9988672 L17.9974219,28.0003125 C17.9974219,27.448125 17.5497656,27.0004687 16.9975781,27.0004687 L16.9975781,27.0004687 Z M15.9977344,36.9990234 L10.9983984,36.9990234 L10.9983984,29.0001562 L15.9977344,29.0001562 L15.9977344,36.9990234 L15.9977344,36.9990234 Z" id="Shape"></path>
                            <path d="M33.9950391,27.0004687 L26.9960156,27.0004687 C26.4438281,27.0004687 25.9961719,27.448125 25.9961719,28.0003125 L25.9961719,37.9988672 C25.9961719,38.5510547 26.4438281,38.9987109 26.9960156,38.9987109 L33.9950391,38.9987109 C34.5472266,38.9987109 34.9948828,38.5510547 34.9948828,37.9988672 L34.9948828,28.0003125 C34.9948828,27.448125 34.5472266,27.0004687 33.9950391,27.0004687 L33.9950391,27.0004687 Z M32.9951953,36.9990234 L27.9959766,36.9990234 L27.9959766,29.0001562 L32.9951953,29.0001562 L32.9951953,36.9990234 L32.9951953,36.9990234 Z" id="Shape"></path>
                            <path d="M33.9950391,42.9980859 L26.9960156,42.9980859 C26.4438281,42.9980859 25.9961719,43.4457422 25.9961719,43.9979297 L25.9961719,53.9964844 C25.9961719,54.5486719 26.4438281,54.9963281 26.9960156,54.9963281 L33.9950391,54.9963281 C34.5472266,54.9963281 34.9948828,54.5486719 34.9948828,53.9964844 L34.9948828,43.9979297 C34.9948828,43.4458594 34.5472266,42.9980859 33.9950391,42.9980859 L33.9950391,42.9980859 Z M32.9951953,52.9966406 L27.9959766,52.9966406 L27.9959766,44.9977734 L32.9951953,44.9977734 L32.9951953,52.9966406 L32.9951953,52.9966406 Z" id="Shape"></path>
                            <path d="M49.9927734,27.0004687 L42.99375,27.0004687 C42.4415625,27.0004687 41.9939063,27.448125 41.9939063,28.0003125 L41.9939063,37.9988672 C41.9939063,38.5510547 42.4415625,38.9987109 42.99375,38.9987109 L49.9927734,38.9987109 C50.5449609,38.9987109 50.9926172,38.5510547 50.9926172,37.9988672 L50.9926172,28.0003125 C50.9926172,27.448125 50.5449609,27.0004687 49.9927734,27.0004687 L49.9927734,27.0004687 Z M48.9929297,36.9990234 L43.9937109,36.9990234 L43.9937109,29.0001562 L48.9929297,29.0001562 L48.9929297,36.9990234 L48.9929297,36.9990234 Z" id="Shape"></path>
                            <path d="M16.9975781,42.9980859 L9.99855469,42.9980859 C9.44636719,42.9980859 8.99871094,43.4457422 8.99871094,43.9979297 L8.99871094,53.9964844 C8.99871094,54.5486719 9.44636719,54.9963281 9.99855469,54.9963281 L16.9975781,54.9963281 C17.5497656,54.9963281 17.9974219,54.5486719 17.9974219,53.9964844 L17.9974219,43.9979297 C17.9974219,43.4458594 17.5497656,42.9980859 16.9975781,42.9980859 L16.9975781,42.9980859 Z M15.9977344,52.9966406 L10.9983984,52.9966406 L10.9983984,44.9977734 L15.9977344,44.9977734 L15.9977344,52.9966406 L15.9977344,52.9966406 Z" id="Shape"></path>
                            <path d="M49.9927734,42.9980859 L42.99375,42.9980859 C42.4415625,42.9980859 41.9939063,43.4457422 41.9939063,43.9979297 L41.9939063,53.9964844 C41.9939063,54.5486719 42.4415625,54.9963281 42.99375,54.9963281 L49.9927734,54.9963281 C50.5449609,54.9963281 50.9926172,54.5486719 50.9926172,53.9964844 L50.9926172,43.9979297 C50.9926172,43.4458594 50.5449609,42.9980859 49.9927734,42.9980859 L49.9927734,42.9980859 Z M48.9929297,52.9966406 L43.9937109,52.9966406 L43.9937109,44.9977734 L48.9929297,44.9977734 L48.9929297,52.9966406 L48.9929297,52.9966406 Z" id="Shape"></path>
                            <path d="M55.9919531,57.9959766 L55.9919531,24.0008203 L56.9917969,24.0008203 C57.5439844,24.0008203 57.9916406,23.5531641 57.9916406,23.0009766 L57.9916406,18.0017578 C57.9916406,17.4495703 57.5439844,17.0019141 56.9917969,17.0019141 L55.9919531,17.0019141 L55.9919531,13.0025391 C55.9919531,12.4503516 55.5442969,12.0026953 54.9921094,12.0026953 L52.9924219,12.0026953 L52.9924219,1.00417969 C52.9924219,0.451992187 52.5447656,0.0043359375 51.9925781,0.0043359375 L7.99886719,0.0043359375 C7.44667969,0.0043359375 6.99902344,0.451992187 6.99902344,1.00417969 L6.99902344,12.0025781 L4.99933594,12.0025781 C4.44714844,12.0025781 3.99949219,12.4502344 3.99949219,13.0024219 L3.99949219,17.0017969 L2.99964844,17.0017969 C2.44746094,17.0017969 1.99980469,17.4494531 1.99980469,18.0016406 L1.99980469,23.0008594 C1.99980469,23.5530469 2.44746094,24.0007031 2.99964844,24.0007031 L3.99949219,24.0007031 L3.99949219,57.9957422 L0,57.9957422 L0,59.9954297 L4.99933594,59.9954297 L54.9921094,59.9954297 L60,59.9954297 L60,57.9957422 L55.9919531,57.9957422 L55.9919531,57.9959766 Z M8.99871094,2.00402344 L50.9926172,2.00402344 L50.9926172,12.0025781 L8.99871094,12.0025781 L8.99871094,2.00402344 L8.99871094,2.00402344 Z M5.99917969,14.0022656 L7.99886719,14.0022656 L51.9924609,14.0022656 L53.9921484,14.0022656 L53.9921484,17.0017969 L5.99917969,17.0017969 L5.99917969,14.0022656 L5.99917969,14.0022656 Z M53.9921484,57.9959766 L5.99917969,57.9959766 L5.99917969,24.0008203 L53.9922656,24.0008203 L53.9922656,57.9959766 L53.9921484,57.9959766 Z M4.99933594,22.0011328 L3.99949219,22.0011328 L3.99949219,19.0016016 L4.99933594,19.0016016 L54.9921094,19.0016016 L55.9919531,19.0016016 L55.9919531,22.0011328 L54.9921094,22.0011328 L4.99933594,22.0011328 L4.99933594,22.0011328 Z" id="Shape"></path>
                            <path d="M28.4599219,5.42484375 C28.3008984,5.0184375 28.0775391,4.66746094 27.7894922,4.37203125 C27.5015625,4.07660156 27.1550391,3.84480469 26.7501562,3.676875 C26.3451562,3.50894531 25.8967969,3.42492187 25.4048437,3.42492187 C24.9128906,3.42492187 24.4637109,3.508125 24.0573047,3.67464844 C23.6508984,3.84117187 23.3029687,4.07285156 23.0135156,4.36980469 C22.7240625,4.66675781 22.4998828,5.0184375 22.3408594,5.42496094 C22.1818359,5.83136719 22.1023828,6.27304687 22.1023828,6.75 C22.1023828,7.22695312 22.1818359,7.66863281 22.3408594,8.07503906 C22.4998828,8.48144531 22.7240625,8.833125 23.0135156,9.13019531 C23.3029687,9.42714844 23.6508984,9.65882812 24.0573047,9.82535156 C24.4637109,9.991875 24.9128906,10.0750781 25.4048437,10.0750781 C25.8967969,10.0750781 26.3451562,9.991875 26.7501562,9.82535156 C27.1551562,9.65894531 27.5015625,9.42714844 27.7894922,9.13019531 C28.0774219,8.83324219 28.3008984,8.4815625 28.4599219,8.07503906 C28.6189453,7.66863281 28.6983984,7.22695312 28.6983984,6.75 C28.6983984,6.27292969 28.6188281,5.83125 28.4599219,5.42484375 L28.4599219,5.42484375 Z M27.3147656,7.71046875 C27.2203125,7.99394531 27.0844922,8.23394531 26.9075391,8.43035156 C26.7305859,8.626875 26.5153125,8.77757812 26.2618359,8.88257812 C26.0083594,8.98757812 25.7226562,9.04007812 25.4047266,9.04007812 C25.0867969,9.04007812 24.8002734,8.98757812 24.5453906,8.88257812 C24.2903906,8.77757812 24.0737109,8.626875 23.8952344,8.43035156 C23.7167578,8.23382812 23.5795313,7.99394531 23.4835547,7.71046875 C23.3875781,7.42699219 23.3395312,7.10683594 23.3395312,6.74988281 C23.3395312,6.39292969 23.3875781,6.07277344 23.4835547,5.78929687 C23.5795312,5.50582031 23.7167578,5.26511719 23.8952344,5.0671875 C24.0737109,4.86925781 24.2903906,4.71773437 24.5453906,4.61273437 C24.8003906,4.50773437 25.0867969,4.45523437 25.4047266,4.45523437 C25.7226562,4.45523437 26.0083594,4.50773437 26.2618359,4.61273437 C26.5153125,4.71773437 26.7304687,4.86925781 26.9075391,5.0671875 C27.0844922,5.26511719 27.2201953,5.50582031 27.3147656,5.78929687 C27.4092187,6.07277344 27.4564453,6.39292969 27.4564453,6.74988281 C27.4564453,7.10683594 27.4093359,7.42699219 27.3147656,7.71046875 L27.3147656,7.71046875 Z" id="Shape"></path>
                            <polygon id="Shape" points="19.9245703 3.496875 19.9245703 6.29542969 16.8740625 6.29542969 16.8740625 3.496875 15.6547266 3.496875 15.6547266 10.0028906 16.8740625 10.0028906 16.8740625 7.15933594 19.9245703 7.15933594 19.9245703 10.0028906 21.1439063 10.0028906 21.1439063 3.496875"></polygon>
                            <polygon id="Shape" points="41.0176172 9.00398437 41.0176172 3.496875 39.8071875 3.496875 39.8071875 10.0028906 43.6226953 10.0028906 43.6226953 9.00398437"></polygon>
                            <polygon id="Shape" points="28.7523047 3.496875 28.7523047 4.49121094 30.7185937 4.49121094 30.7185937 10.0028906 31.9289062 10.0028906 31.9289062 4.49121094 33.8860547 4.49121094 33.8860547 3.496875"></polygon>
                            <polygon id="Shape" points="38.7589453 4.4596875 38.7589453 3.496875 34.6555078 3.496875 34.6555078 10.0028906 38.7589453 10.0028906 38.7589453 9.03550781 35.8748437 9.03550781 35.8748437 7.1953125 38.1469922 7.1953125 38.1469922 6.26390625 35.8748437 6.26390625 35.8748437 4.4596875"></polygon>
                        </g>
                    </g>
                </g>
            </g>
        </g>
    </g>
</svg>