<?xml version="1.0" encoding="UTF-8"?>
<svg width="52px" height="60px" viewBox="0 0 52 60" version="1.1" xmlns="http://www.w3.org/2000/svg" xmlns:xlink="http://www.w3.org/1999/xlink">
    <!-- Generator: sketchtool 51.2 (57519) - http://www.bohemiancoding.com/sketch -->
    <title>81CC129E-35A3-4C72-8917-CB0293EA333C</title>
    <desc>Created with sketchtool.</desc>
    <defs></defs>
    <g id="Page-1" stroke="none" stroke-width="1" fill="none" fill-rule="evenodd">
        <g id="Large-Devices-(-≥-1200px-)" transform="translate(-990.000000, -842.000000)" fill="#000000">
            <g id="Tabs" transform="translate(150.000000, 802.000000)">
                <g id="coffee-shop" transform="translate(780.000000, 40.000000)">
                    <g id="coffee-cup" transform="translate(60.000000, 0.000000)">
                        <g id="Group">
                            <path d="M43.4773218,30.0647948 C42.7456587,30.0647948 42.0309719,30.1609503 41.3390929,30.3469114 L41.3390929,30 C41.3390929,28.3207775 39.972959,26.9546436 38.2937365,26.9546436 L3.04535637,26.9546436 C1.36613391,26.9546436 0,28.3207775 0,30 L0,44.5140389 C0,48.737365 1.97455724,52.8473002 5.18358531,55.3660043 L5.18358531,56.9546436 C5.18358531,58.6338661 6.54971922,60 8.22894168,60 L33.1101512,60 C34.7893737,60 36.1555076,58.6338661 36.1555076,56.9546436 L36.1555076,55.3660043 C38.4226782,53.5866091 40.0724838,51.0125702 40.8462635,48.1656156 C41.6893737,48.4508423 42.5704536,48.5961123 43.4773218,48.5961123 C48.0147732,48.5961123 51.7062635,44.904622 51.7062635,40.3671706 L51.7062635,38.2937365 C51.7062635,33.7562851 48.0147732,30.0647948 43.4773218,30.0647948 L43.4773218,30.0647948 Z M41.3390929,38.2937365 C41.3390929,37.11473 42.2983153,36.1555076 43.4773218,36.1555076 C44.6563283,36.1555076 45.6155508,37.11473 45.6155508,38.2937365 L45.6155508,40.3671706 C45.6155508,41.5461771 44.6563283,42.5053996 43.4773218,42.5053996 C42.2983153,42.5053996 41.3390929,41.5461771 41.3390929,40.3671706 L41.3390929,38.2937365 L41.3390929,38.2937365 Z M33.1101512,58.0561555 L8.22894168,58.0561555 C7.62155508,58.0561555 7.12742981,57.5620302 7.12742981,56.9546436 L7.12742981,55.8531317 L34.2116631,55.8531317 L34.2116631,56.9546436 C34.2116631,57.5620302 33.7175378,58.0561555 33.1101512,58.0561555 L33.1101512,58.0561555 Z M39.3952484,44.5140389 C39.3952484,48.1915335 37.6650972,51.7613391 34.8612959,53.9092873 L6.47779698,53.9092873 C3.67399568,51.7612095 1.94384449,48.1915335 1.94384449,44.5140389 L1.94384449,30 C1.94384449,29.3926134 2.43796976,28.8984881 3.04535637,28.8984881 L38.2937365,28.8984881 C38.9011231,28.8984881 39.3952484,29.3926134 39.3952484,30 L39.3952484,38.2937365 L39.3952484,40.3671706 L39.3952484,44.5140389 L39.3952484,44.5140389 Z M49.762419,40.3671706 C49.762419,43.8327862 46.9429374,46.6522678 43.4773218,46.6522678 C42.6978402,46.6522678 41.9440173,46.5111447 41.2289417,46.2362851 C41.3008639,45.6667387 41.3390929,45.0916199 41.3390929,44.5140389 L41.3390929,43.842635 C41.9613823,44.2268683 42.6938229,44.4492441 43.4773218,44.4492441 C45.7281641,44.4492441 47.5593952,42.618013 47.5593952,40.3671706 L47.5593952,38.2937365 C47.5593952,36.0428942 45.7281641,34.2116631 43.4773218,34.2116631 C42.6938229,34.2116631 41.9613823,34.4340389 41.3390929,34.8182721 L41.3390929,32.3830238 C42.0212527,32.1355076 42.7377538,32.0086393 43.4773218,32.0086393 C46.9429374,32.0086393 49.762419,34.828121 49.762419,38.2937365 L49.762419,40.3671706 L49.762419,40.3671706 Z" id="Shape"></path>
                            <path d="M20.0130454,19.2634989 C18.9487257,20.2386609 17.6241901,21.4522678 17.6241901,23.7796976 C17.6241901,24.3164579 18.0592225,24.7516199 18.5961123,24.7516199 C19.1330022,24.7516199 19.5680346,24.3164579 19.5680346,23.7796976 C19.5680346,22.3075594 20.3438877,21.5967603 21.3260475,20.6967603 C22.3903672,19.7215983 23.7149028,18.5079914 23.7149028,16.1805616 C23.7149028,13.8519654 22.3904968,12.6377106 21.3263067,11.6619006 C20.3438877,10.7613823 19.5680346,10.0498056 19.5680346,8.5762419 C19.5680346,7.1025486 20.3440173,6.39110151 21.3263067,5.49032397 C22.3904968,4.51477322 23.7149028,3.30051836 23.7149028,0.971922246 C23.7149028,0.435161987 23.2798704,0 22.7429806,0 C22.2060907,0 21.7710583,0.435161987 21.7710583,0.971922246 C21.7710583,2.44548596 20.9952052,3.15693305 20.0127862,4.05771058 C18.9485961,5.03339093 17.6241901,6.24764579 17.6241901,8.5762419 C17.6241901,10.904838 18.9485961,12.1190929 20.0127862,13.0947732 C20.9950756,13.9955508 21.7710583,14.7069978 21.7710583,16.1806911 C21.7710583,17.6526998 20.9952052,18.3636285 20.0130454,19.2634989 L20.0130454,19.2634989 Z" id="Shape"></path>
                            <path d="M26.2333477,19.2634989 C25.1690281,20.2386609 23.8444924,21.4522678 23.8444924,23.7796976 C23.8444924,24.3164579 24.2795248,24.7516199 24.8164147,24.7516199 C25.3533045,24.7516199 25.7883369,24.3164579 25.7883369,23.7796976 C25.7883369,22.3075594 26.5641901,21.5967603 27.5463499,20.6967603 C28.6106695,19.7217279 29.9352052,18.5079914 29.9352052,16.1805616 C29.9352052,13.8519654 28.6107991,12.6377106 27.5466091,11.6619006 C26.5641901,10.7613823 25.7883369,10.0498056 25.7883369,8.5762419 C25.7883369,8.03948164 25.3533045,7.60431965 24.8164147,7.60431965 C24.2795248,7.60431965 23.8444924,8.03948164 23.8444924,8.5762419 C23.8444924,10.904838 25.1688985,12.1190929 26.2330886,13.0947732 C27.215378,13.9955508 27.9913607,14.7069978 27.9913607,16.1806911 C27.9913607,17.6526998 27.2155076,18.3636285 26.2333477,19.2634989 L26.2333477,19.2634989 Z" id="Shape"></path>
                            <path d="M13.792743,19.2634989 C12.7284233,20.2386609 11.4038877,21.4522678 11.4038877,23.7796976 C11.4038877,24.3164579 11.8389201,24.7516199 12.3758099,24.7516199 C12.9126998,24.7516199 13.3477322,24.3164579 13.3477322,23.7796976 C13.3477322,22.3075594 14.1235853,21.5967603 15.1057451,20.6967603 C16.1700648,19.7217279 17.4946004,18.5079914 17.4946004,16.1805616 C17.4946004,13.8519654 16.1701944,12.6377106 15.1060043,11.6619006 C14.1235853,10.7613823 13.3477322,10.0498056 13.3477322,8.5762419 C13.3477322,8.03948164 12.9126998,7.60431965 12.3758099,7.60431965 C11.8389201,7.60431965 11.4038877,8.03948164 11.4038877,8.5762419 C11.4038877,10.904838 12.7282937,12.1190929 13.7924838,13.0947732 C14.7747732,13.9955508 15.5507559,14.7069978 15.5507559,16.1806911 C15.5507559,17.6526998 14.7749028,18.3636285 13.792743,19.2634989 L13.792743,19.2634989 Z" id="Shape"></path>
                        </g>
                    </g>
                </g>
            </g>
        </g>
    </g>
</svg>